<svg id="visual" viewBox="0 0 960 540" width="960" height="540" xmlns="http://www.w3.org/2000/svg" xmlns:xlink="http://www.w3.org/1999/xlink" version="1.1"><rect x="0" y="0" width="960" height="540" fill="#545a5f"></rect><path d="M0 422L96 410L192 419L288 382L384 407L480 393L576 399L672 395L768 393L864 425L960 403L960 541L864 541L768 541L672 541L576 541L480 541L384 541L288 541L192 541L96 541L0 541Z" fill="#f7770f"></path><path d="M0 428L96 412L192 449L288 402L384 439L480 447L576 421L672 450L768 425L864 405L960 422L960 541L864 541L768 541L672 541L576 541L480 541L384 541L288 541L192 541L96 541L0 541Z" fill="#f44c70"></path><path d="M0 436L96 461L192 452L288 449L384 455L480 430L576 451L672 447L768 450L864 472L960 456L960 541L864 541L768 541L672 541L576 541L480 541L384 541L288 541L192 541L96 541L0 541Z" fill="#b358a5"></path><path d="M0 494L96 463L192 480L288 495L384 473L480 483L576 482L672 486L768 464L864 481L960 468L960 541L864 541L768 541L672 541L576 541L480 541L384 541L288 541L192 541L96 541L0 541Z" fill="#5765a6"></path><path d="M0 512L96 496L192 495L288 496L384 490L480 513L576 516L672 511L768 489L864 512L960 503L960 541L864 541L768 541L672 541L576 541L480 541L384 541L288 541L192 541L96 541L0 541Z" fill="#1d5f7d"></path></svg>